<svg width="40" height="40" viewBox="0 0 40 40" fill="none" xmlns="http://www.w3.org/2000/svg">
<circle cx="20" cy="20" r="20" fill="#1E031B"/>
<circle cx="20" cy="20" r="20" fill="url(#paint0_linear_36_67780)" fill-opacity="0.8"/>
<circle cx="20" cy="20" r="19.5" stroke="url(#paint1_linear_36_67780)" stroke-opacity="0.9"/>
<path d="M14.6464 28.3536C14.8417 28.5488 15.1583 28.5488 15.3536 28.3536L18.5355 25.1716C18.7308 24.9763 18.7308 24.6597 18.5355 24.4645C18.3403 24.2692 18.0237 24.2692 17.8284 24.4645L15 27.2929L12.1716 24.4645C11.9763 24.2692 11.6597 24.2692 11.4645 24.4645C11.2692 24.6597 11.2692 24.9763 11.4645 25.1716L14.6464 28.3536ZM14.5 13L14.5 28L15.5 28L15.5 13L14.5 13Z" fill="white"/>
<path d="M25.3536 12.6464C25.1583 12.4512 24.8417 12.4512 24.6464 12.6464L21.4645 15.8284C21.2692 16.0237 21.2692 16.3403 21.4645 16.5355C21.6597 16.7308 21.9763 16.7308 22.1716 16.5355L25 13.7071L27.8284 16.5355C28.0237 16.7308 28.3403 16.7308 28.5355 16.5355C28.7308 16.3403 28.7308 16.0237 28.5355 15.8284L25.3536 12.6464ZM25.5 28L25.5 13L24.5 13L24.5 28L25.5 28Z" fill="white"/>
<defs>
<linearGradient id="paint0_linear_36_67780" x1="-11.5984" y1="-17.7465" x2="80.9837" y2="-0.0420079" gradientUnits="userSpaceOnUse">
<stop stop-color="#FFF16D"/>
<stop offset="0.276042" stop-color="#F2A03F" stop-opacity="0.82"/>
<stop offset="0.630208" stop-color="#963D8D" stop-opacity="0.38"/>
<stop offset="0.942708" stop-color="#AA3B58" stop-opacity="0"/>
</linearGradient>
<linearGradient id="paint1_linear_36_67780" x1="-11.5984" y1="-17.7465" x2="80.9837" y2="-0.0420079" gradientUnits="userSpaceOnUse">
<stop stop-color="#FFF16D"/>
<stop offset="0.276042" stop-color="#F2A03F" stop-opacity="0.82"/>
<stop offset="0.630208" stop-color="#963D8D" stop-opacity="0.38"/>
<stop offset="0.942708" stop-color="#AA3B58" stop-opacity="0"/>
</linearGradient>
</defs>
</svg>
