<svg width="1115" height="1619" viewBox="0 0 1115 1619" fill="none" xmlns="http://www.w3.org/2000/svg">
<path fill-rule="evenodd" clip-rule="evenodd" d="M610.5 21C610.5 9.67815 619.678 0.5 631 0.5H1094C1105.32 0.5 1114.5 9.67816 1114.5 21V417.498C1114.5 428.819 1105.32 437.998 1094 437.998H1073.5V823V823.5H1073H591C590.724 823.5 590.5 823.276 590.5 823C590.5 822.909 590.524 822.824 590.567 822.75C590.524 822.676 590.5 822.591 590.5 822.5V755C590.5 744.23 581.77 735.5 571 735.5H108C97.2304 735.5 88.5 744.23 88.5 755V1021.06C88.5 1031.83 97.2304 1040.56 108 1040.56H424.757C424.805 1040.54 424.857 1040.52 424.913 1040.51C424.941 1040.5 424.97 1040.5 425 1040.5C425.276 1040.5 425.5 1040.72 425.5 1041V1041.06V1396.5C425.5 1397.88 426.619 1399 428 1399H610.5V1332C610.5 1320.68 619.678 1311.5 631 1311.5H1094C1105.32 1311.5 1114.5 1320.68 1114.5 1332V1598.06C1114.5 1609.38 1105.32 1618.56 1094 1618.56H631C619.678 1618.56 610.5 1609.38 610.5 1598.06V1455.65C610.5 1455.38 610.724 1455.15 611 1455.15C611.276 1455.15 611.5 1455.38 611.5 1455.65V1598.06C611.5 1608.83 620.23 1617.56 631 1617.56H1094C1104.77 1617.56 1113.5 1608.83 1113.5 1598.06V1332C1113.5 1321.23 1104.77 1312.5 1094 1312.5H631C620.23 1312.5 611.5 1321.23 611.5 1332V1399.5C611.5 1399.78 611.276 1400 611 1400H428C426.067 1400 424.5 1398.43 424.5 1396.5V1041.56H108C96.6782 1041.56 87.5 1032.38 87.5 1021.06V755C87.5 743.678 96.6782 734.5 108 734.5H571C582.322 734.5 591.5 743.678 591.5 755V822.5H1072.5V437.498V437C1072.5 436.724 1072.72 436.5 1073 436.5C1073.28 436.5 1073.5 436.723 1073.5 436.998H1094C1104.77 436.998 1113.5 428.267 1113.5 417.498V21C1113.5 10.2304 1104.77 1.5 1094 1.5H631C620.23 1.5 611.5 10.2304 611.5 21V50.2428C611.5 50.3941 611.433 50.5297 611.327 50.6214C611.433 50.713 611.5 50.8486 611.5 50.9999C611.5 51.2761 611.276 51.4999 611 51.4999L1 51.5C0.723858 51.5 0.5 51.2761 0.5 51C0.5 50.7239 0.723858 50.5 1 50.5L610.571 50.4999C610.526 50.4248 610.5 50.3368 610.5 50.2428V21ZM611 129.99C611.276 129.99 611.5 130.214 611.5 130.49V417.498C611.5 428.267 620.23 436.998 631 436.998H1027C1027.28 436.998 1027.5 437.221 1027.5 437.498C1027.5 437.774 1027.28 437.998 1027 437.998H631C619.678 437.998 610.5 428.819 610.5 417.498V130.49C610.5 130.214 610.724 129.99 611 129.99ZM591 880.711C591.276 880.711 591.5 880.935 591.5 881.211V1021.06C591.5 1032.38 582.322 1041.56 571 1041.56H455C454.724 1041.56 454.5 1041.34 454.5 1041.06C454.5 1040.79 454.724 1040.56 455 1040.56H571C581.77 1040.56 590.5 1031.83 590.5 1021.06V881.211C590.5 880.935 590.724 880.711 591 880.711ZM1 1399C0.723858 1399 0.5 1399.22 0.5 1399.5C0.5 1399.78 0.723858 1400 1 1400H378.5C378.776 1400 379 1399.78 379 1399.5C379 1399.22 378.776 1399 378.5 1399H1Z" fill="url(#paint0_radial_49_1822)" fill-opacity="0.62"/>
<defs>
<radialGradient id="paint0_radial_49_1822" cx="0" cy="0" r="1" gradientUnits="userSpaceOnUse" gradientTransform="translate(683.366 1334.78) rotate(157.429) scale(1284.16 468881)">
<stop stop-color="#F44A65"/>
<stop offset="0.276042" stop-color="#F2A03F" stop-opacity="0.82"/>
<stop offset="0.630208" stop-color="#963D8D" stop-opacity="0.38"/>
<stop offset="0.942708" stop-color="#AA3B58" stop-opacity="0"/>
</radialGradient>
</defs>
</svg>
