<svg width="731" height="476" viewBox="0 0 731 476" fill="none" xmlns="http://www.w3.org/2000/svg">
<path d="M528.266 245.257L554.944 275.238L548.057 277.43L526.183 252.086L528.265 251.424L525.065 284.748L518.425 286.862L522.865 246.976L528.266 245.257ZM504.348 252.87L512.313 277.893L506.119 279.864L498.154 254.841L504.348 252.87ZM514.158 282.49L516.082 288.535L509.194 290.727L507.27 284.682L514.158 282.49ZM482.351 259.326C484.498 258.642 486.559 258.259 488.534 258.176C490.486 258.137 492.22 258.385 493.737 258.921L493.328 263.636C491.799 263.176 490.201 262.957 488.534 262.978C486.868 263 485.258 263.257 483.705 263.751C482.054 264.277 480.921 264.947 480.307 265.761C479.66 266.585 479.489 267.477 479.793 268.435C480.035 269.194 480.489 269.705 481.154 269.966C481.797 270.271 482.717 270.36 483.913 270.234L489.168 269.598C491.429 269.388 493.3 269.665 494.781 270.431C496.229 271.207 497.242 272.504 497.82 274.32C498.314 275.873 498.337 277.375 497.89 278.827C497.41 280.29 496.498 281.599 495.156 282.754C493.791 283.952 492.052 284.888 489.938 285.561C488.088 286.149 486.275 286.454 484.498 286.473C482.689 286.504 481.065 286.202 479.626 285.568L480.133 280.987C481.42 281.487 482.797 281.758 484.266 281.8C485.734 281.842 487.096 281.663 488.352 281.263C490.069 280.716 491.225 280.003 491.818 279.123C492.421 278.276 492.571 277.374 492.266 276.416C492.034 275.689 491.609 275.151 490.988 274.803C490.346 274.498 489.476 274.393 488.378 274.488L483.123 275.124C480.773 275.399 478.863 275.17 477.393 274.437C475.9 273.748 474.86 272.479 474.271 270.629C473.745 268.977 473.739 267.415 474.252 265.942C474.766 264.469 475.715 263.166 477.101 262.034C478.487 260.901 480.237 259.999 482.351 259.326ZM457.429 267.258C460.501 266.281 463.065 266.392 465.12 267.593C467.176 268.794 468.756 271.129 469.86 274.598L474.718 289.859L468.524 291.831L463.682 276.619C463.093 274.769 462.277 273.519 461.233 272.869C460.2 272.252 458.907 272.19 457.355 272.684C455.604 273.242 454.373 274.288 453.661 275.825C452.917 277.371 452.854 279.119 453.475 281.068L457.97 295.19L451.776 297.162L443.811 272.138L449.856 270.214L451.481 275.318L450.787 275.539C450.946 273.524 451.611 271.784 452.782 270.32C453.931 268.899 455.48 267.879 457.429 267.258ZM427.267 276.859C429.447 276.165 431.526 276.067 433.504 276.565C435.492 277.097 437.259 278.19 438.804 279.844C440.349 281.499 441.553 283.68 442.415 286.389C443.277 289.098 443.551 291.558 443.236 293.768C442.931 296.011 442.116 297.908 440.79 299.458C439.475 301.04 437.727 302.179 435.547 302.873C433.433 303.546 431.415 303.606 429.493 303.054C427.548 302.545 426.033 301.499 424.947 299.916L425.492 299.743L426.619 305.169L420.673 307.061C420.446 306.006 420.214 304.934 419.977 303.845C419.706 302.767 419.408 301.716 419.082 300.692L413.105 281.912L419.249 279.957L420.939 285.094L420.344 285.283C420.326 283.397 420.963 281.685 422.256 280.145C423.548 278.606 425.219 277.511 427.267 276.859ZM427.047 282.168C425.098 282.788 423.744 283.965 422.986 285.697C422.238 287.463 422.306 289.734 423.189 292.509C424.073 295.283 425.324 297.159 426.945 298.135C428.565 299.11 430.35 299.288 432.299 298.668C434.248 298.048 435.601 296.871 436.359 295.138C437.117 293.405 437.055 291.151 436.172 288.376C435.289 285.602 434.048 283.704 432.45 282.685C430.83 281.709 429.029 281.537 427.047 282.168ZM406.36 284.059L417.968 320.528L411.774 322.5L400.166 286.03L406.36 284.059ZM379.843 292.499L385.82 311.279C386.146 312.303 386.51 313.333 386.913 314.369C387.315 315.405 387.746 316.414 388.204 317.396L382.208 319.304L380.135 314.507L380.73 314.318C380.494 316.321 379.748 318.032 378.489 319.451C377.242 320.903 375.594 321.955 373.546 322.607C370.606 323.543 368.13 323.422 366.117 322.243C364.105 321.065 362.542 318.725 361.427 315.223L356.554 299.912L362.748 297.94L367.526 312.954C368.168 314.969 369.022 316.28 370.088 316.887C371.131 317.537 372.43 317.615 373.982 317.121C375.898 316.511 377.228 315.432 377.973 313.886C378.718 312.339 378.775 310.575 378.144 308.593L373.649 294.471L379.843 292.499ZM338.531 305.103C341.108 304.283 343.506 304.101 345.725 304.559C347.945 305.017 349.893 306.052 351.57 307.665C353.215 309.288 354.463 311.437 355.315 314.113C356.166 316.788 356.385 319.247 355.971 321.489C355.534 323.775 354.542 325.746 352.996 327.402C351.449 329.058 349.388 330.297 346.811 331.117C344.235 331.937 341.837 332.118 339.617 331.66C337.365 331.213 335.416 330.178 333.772 328.555C332.105 326.975 330.846 324.848 329.994 322.172C329.143 319.496 328.935 317.016 329.372 314.73C329.775 312.455 330.767 310.484 332.347 308.817C333.893 307.161 335.955 305.923 338.531 305.103ZM340.045 309.86C338.096 310.48 336.759 311.651 336.034 313.374C335.32 315.129 335.404 317.394 336.287 320.169C337.17 322.944 338.406 324.824 339.993 325.811C341.58 326.797 343.348 326.98 345.297 326.36C347.246 325.74 348.583 324.568 349.308 322.846C350.033 321.123 349.954 318.875 349.071 316.1C348.188 313.325 346.947 311.428 345.35 310.409C343.762 309.422 341.994 309.239 340.045 309.86ZM313.813 313.516L332.58 335.101L325.989 337.198L311.931 320.118L313.467 319.629L311.669 341.756L305.476 343.728L308.362 315.251L313.813 313.516ZM282.43 322.96C286.625 321.624 290.28 321.734 293.394 323.289C296.509 324.845 298.707 327.638 299.99 331.668C300.821 334.277 301.034 336.72 300.63 338.995C300.227 341.269 299.29 343.241 297.82 344.91C296.317 346.588 294.343 347.817 291.899 348.595C289.487 349.363 287.309 349.492 285.365 348.983C283.42 348.474 281.741 347.426 280.326 345.839C278.878 344.263 277.76 342.236 276.971 339.758L276.451 338.123L294.686 332.319L295.727 335.589L281.902 339.99L282.524 339.028C283.26 341.34 284.318 342.95 285.698 343.857C287.045 344.774 288.643 344.938 290.493 344.349C292.541 343.698 293.895 342.466 294.556 340.655C295.183 338.855 295.082 336.65 294.251 334.04L294.046 333.396C293.184 330.687 291.877 328.866 290.124 327.932C288.349 327.042 286.239 326.986 283.795 327.764C282.375 328.216 281.111 328.818 280.004 329.57C278.875 330.366 277.886 331.373 277.036 332.589L273.878 329.01C274.762 327.674 275.946 326.478 277.43 325.424C278.913 324.37 280.58 323.548 282.43 322.96ZM267.531 328.247L279.139 364.716L272.945 366.688L261.337 330.219L267.531 328.247ZM510.358 179.05C512.505 178.366 514.566 177.983 516.541 177.901C518.493 177.861 520.227 178.11 521.744 178.646L521.334 183.36C519.806 182.9 518.208 182.681 516.541 182.703C514.874 182.724 513.265 182.981 511.712 183.476C510.06 184.001 508.928 184.671 508.313 185.485C507.666 186.31 507.495 187.201 507.8 188.159C508.042 188.918 508.496 189.429 509.161 189.69C509.804 189.995 510.723 190.084 511.92 189.958L517.175 189.322C519.436 189.112 521.307 189.389 522.788 190.155C524.235 190.931 525.248 192.228 525.827 194.045C526.321 195.597 526.344 197.099 525.897 198.552C525.416 200.014 524.505 201.323 523.163 202.478C521.798 203.676 520.059 204.612 517.944 205.285C516.094 205.874 514.281 206.178 512.505 206.197C510.696 206.228 509.072 205.926 507.633 205.293L508.139 200.711C509.426 201.211 510.804 201.482 512.273 201.524C513.741 201.566 515.103 201.387 516.358 200.987C518.076 200.441 519.231 199.727 519.824 198.847C520.428 198 520.577 197.098 520.272 196.14C520.041 195.413 519.615 194.876 518.995 194.527C518.352 194.223 517.482 194.118 516.385 194.212L511.13 194.848C508.78 195.123 506.87 194.894 505.4 194.162C503.907 193.472 502.866 192.203 502.278 190.353C501.752 188.701 501.746 187.139 502.259 185.666C502.773 184.193 503.722 182.89 505.108 181.758C506.494 180.625 508.244 179.723 510.358 179.05ZM494.611 184.608L500.589 203.387C500.915 204.411 501.279 205.441 501.681 206.477C502.084 207.514 502.514 208.523 502.972 209.505L496.977 211.413L494.904 206.616L495.499 206.426C495.263 208.429 494.516 210.141 493.258 211.56C492.01 213.012 490.362 214.064 488.314 214.716C485.374 215.652 482.898 215.53 480.886 214.352C478.874 213.173 477.31 210.833 476.196 207.331L471.322 192.02L477.516 190.049L482.295 205.063C482.936 207.078 483.79 208.389 484.856 208.995C485.9 209.645 487.198 209.723 488.751 209.229C490.667 208.619 491.997 207.541 492.742 205.994C493.486 204.447 493.543 202.683 492.912 200.701L488.417 186.579L494.611 184.608ZM452.507 197.463C456.702 196.128 460.357 196.238 463.472 197.793C466.586 199.349 468.785 202.141 470.067 206.172C470.898 208.781 471.111 211.224 470.708 213.499C470.304 215.773 469.367 217.745 467.897 219.414C466.394 221.092 464.421 222.321 461.976 223.099C459.565 223.867 457.387 223.996 455.442 223.487C453.498 222.978 451.818 221.93 450.403 220.343C448.956 218.767 447.837 216.74 447.049 214.262L446.528 212.627L464.763 206.823L465.804 210.093L451.979 214.494L452.601 213.532C453.337 215.844 454.395 217.454 455.775 218.361C457.122 219.278 458.72 219.442 460.57 218.853C462.618 218.202 463.973 216.97 464.633 215.159C465.261 213.359 465.159 211.154 464.329 208.544L464.123 207.9C463.261 205.191 461.954 203.37 460.202 202.436C458.427 201.546 456.317 201.49 453.872 202.268C452.452 202.72 451.188 203.322 450.082 204.074C448.953 204.87 447.963 205.877 447.114 207.093L443.955 203.514C444.84 202.178 446.023 200.982 447.507 199.928C448.99 198.874 450.657 198.052 452.507 197.463ZM427.789 205.331C429.969 204.637 432.048 204.539 434.025 205.038C436.014 205.569 437.78 206.662 439.326 208.317C440.871 209.971 442.075 212.153 442.937 214.862C443.799 217.57 444.072 220.03 443.757 222.24C443.453 224.484 442.638 226.38 441.312 227.93C439.997 229.513 438.249 230.651 436.069 231.345C433.955 232.018 431.936 232.078 430.014 231.526C428.07 231.017 426.555 229.971 425.469 228.389L426.014 228.215L427.141 233.641L421.194 235.534C420.968 234.478 420.736 233.406 420.498 232.318C420.228 231.239 419.93 230.188 419.604 229.164L413.626 210.385L419.77 208.429L421.46 213.566L420.866 213.756C420.847 211.87 421.485 210.157 422.777 208.618C424.07 207.079 425.741 205.983 427.789 205.331ZM427.568 210.64C425.619 211.26 424.266 212.437 423.508 214.17C422.76 215.936 422.828 218.206 423.711 220.981C424.594 223.756 425.846 225.631 427.466 226.607C429.087 227.583 430.871 227.761 432.82 227.14C434.769 226.52 436.123 225.343 436.881 223.61C437.639 221.878 437.577 219.624 436.693 216.849C435.81 214.074 434.57 212.177 432.972 211.158C431.352 210.182 429.55 210.009 427.568 210.64ZM406.882 212.531L418.489 249.001L412.296 250.972L405.261 228.873L405.162 228.904L398.395 242.791L390.913 245.172L399.338 227.92L400.077 230.414L382.057 220.433L389.737 217.988L404.153 225.733L404.252 225.701L400.688 214.503L406.882 212.531ZM362.538 214.859L371.922 244.341C372.248 245.365 372.612 246.395 373.014 247.431C373.417 248.467 373.847 249.476 374.305 250.458L368.31 252.367L366.093 247.288L366.638 247.114C366.7 249.023 366.101 250.742 364.841 252.27C363.559 253.843 361.861 254.965 359.747 255.638C357.533 256.343 355.433 256.429 353.444 255.898C351.467 255.399 349.705 254.323 348.16 252.668C346.625 251.047 345.427 248.882 344.565 246.173C343.702 243.464 343.424 240.988 343.728 238.745C344.033 236.501 344.843 234.588 346.158 233.005C347.484 231.456 349.253 230.328 351.466 229.624C353.548 228.962 355.544 228.89 357.455 229.409C359.367 229.929 360.86 230.963 361.936 232.513L361.391 232.686L356.344 216.83L362.538 214.859ZM354.715 233.829C352.733 234.46 351.363 235.642 350.605 237.375C349.857 239.14 349.925 241.411 350.808 244.186C351.691 246.96 352.943 248.836 354.563 249.812C356.184 250.788 357.985 250.96 359.967 250.329C361.916 249.709 363.269 248.532 364.027 246.799C364.786 245.066 364.723 242.813 363.84 240.038C362.957 237.263 361.7 235.371 360.069 234.362C358.448 233.386 356.664 233.209 354.715 233.829ZM322.969 238.695C327.164 237.359 330.819 237.469 333.934 239.025C337.048 240.58 339.247 243.373 340.529 247.403C341.36 250.012 341.574 252.455 341.17 254.73C340.766 257.005 339.829 258.976 338.359 260.645C336.857 262.324 334.883 263.552 332.438 264.33C330.027 265.098 327.849 265.227 325.904 264.718C323.96 264.209 322.28 263.161 320.865 261.574C319.418 259.998 318.3 257.971 317.511 255.493L316.991 253.858L335.225 248.054L336.266 251.324L322.441 255.725L323.063 254.763C323.799 257.075 324.857 258.685 326.237 259.592C327.584 260.509 329.183 260.673 331.032 260.084C333.081 259.433 334.435 258.201 335.095 256.39C335.723 254.59 335.621 252.385 334.791 249.775L334.586 249.131C333.723 246.422 332.416 244.601 330.664 243.667C328.889 242.777 326.779 242.721 324.334 243.499C322.914 243.951 321.651 244.553 320.544 245.306C319.415 246.101 318.425 247.108 317.576 248.324L314.417 244.745C315.302 243.409 316.486 242.213 317.969 241.159C319.453 240.105 321.119 239.283 322.969 238.695ZM298.251 246.562C300.431 245.868 302.51 245.77 304.487 246.269C306.476 246.8 308.242 247.893 309.788 249.548C311.333 251.202 312.537 253.384 313.399 256.093C314.261 258.802 314.535 261.261 314.219 263.471C313.915 265.715 313.1 267.611 311.774 269.161C310.459 270.744 308.711 271.882 306.531 272.576C304.417 273.249 302.399 273.309 300.476 272.757C298.532 272.248 297.017 271.203 295.931 269.62L296.476 269.447L297.603 274.872L291.657 276.765C291.43 275.709 291.198 274.637 290.96 273.549C290.69 272.471 290.392 271.419 290.066 270.395L284.088 251.616L290.233 249.66L291.922 254.798L291.328 254.987C291.31 253.101 291.947 251.388 293.24 249.849C294.532 248.31 296.203 247.214 298.251 246.562ZM298.031 251.871C296.082 252.491 294.728 253.668 293.97 255.401C293.222 257.167 293.29 259.437 294.173 262.212C295.056 264.987 296.308 266.862 297.929 267.838C299.549 268.814 301.333 268.992 303.282 268.371C305.231 267.751 306.585 266.574 307.343 264.842C308.101 263.109 308.039 260.855 307.155 258.08C306.272 255.305 305.032 253.408 303.434 252.389C301.814 251.413 300.013 251.24 298.031 251.871ZM277.344 253.763L288.952 290.232L282.758 292.203L275.724 270.104L275.624 270.135L268.858 284.022L261.375 286.403L269.8 269.151L270.539 271.645L252.519 261.664L260.199 259.22L274.615 266.964L274.714 266.932L271.15 255.734L277.344 253.763Z" fill="#1E031B"/>
<rect x="730.944" y="269.669" width="677" height="283" transform="rotate(162.344 730.944 269.669)" fill="url(#paint0_linear_33_1924)" fill-opacity="0.3"/>
<defs>
<linearGradient id="paint0_linear_33_1924" x1="717.545" y1="250.886" x2="1359.65" y2="508.575" gradientUnits="userSpaceOnUse">
<stop stop-color="#F44A65"/>
<stop offset="1" stop-color="#E789DE" stop-opacity="0"/>
</linearGradient>
</defs>
</svg>
